# xmcd
#
# Track frame offsets: 
#        150
#        18885
#        32146
#        50671
#        64120
#        80553
#        92217
#        106917
#        122639
#        133381
#        152787
#        166198
#        180663
#        204402
#
# Disc length: 2909 seconds
#
# Revision: 0
# Processed by: cddbd v1.5.2PL0 Copyright (c) Steve Scherf et al.
# Submitted via: ExactAudioCopy v1.0b3
#
DISCID=bb0b5b0e
DTITLE=Demis Roussos - Souvenirs
DYEAR=1975
DGENRE=Pop
TTITLE0=Sing An Ode To Love
TTITLE1=Midnight Is The Time I Need You
TTITLE2=I`ll Be Your Friend
TTITLE3=Action Lady
TTITLE4=Winter Rains
TTITLE5=From Souvenirs To Souvenirs
TTITLE6=Trying To Catch The Wind
TTITLE7=White Wings
TTITLE8=Tell Me Now
TTITLE9=Names
TTITLE10=Perdoname
TTITLE11=The Secret In Your Eyes
TTITLE12=A Flower`s All You Need
TTITLE13=I Like The World
EXTD=
EXTT0=
EXTT1=
EXTT2=
EXTT3=
EXTT4=
EXTT5=
EXTT6=
EXTT7=
EXTT8=
EXTT9=
EXTT10=
EXTT11=
EXTT12=
EXTT13=
PLAYORDER=
